<?xml version="1.0" encoding="UTF-8"?>

<svg version="1.2" viewBox="-400 0 20000 25000" preserveAspectRatio="xMidYMid" fill-rule="evenodd" stroke-width="28.222" stroke-linejoin="round" xmlns="http://www.w3.org/2000/svg" xmlns:xlink="http://www.w3.org/1999/xlink" xml:space="preserve" fill="#d2d5dc" stroke="none">
  <g>
   <path d="M 7279,19542 C 7268,19150 7262,18855 7262,18659 7262,17503 7426,16505 7753,15665 7993,15032 8380,14394 8915,13750 9308,13281 10014,12597 11034,11697 12054,10797 12716,10080 13022,9545 13327,9011 13480,8427 13480,7795 13480,6649 13033,5643 12138,4776 11244,3909 10148,3475 8850,3475 7595,3475 6548,3868 5708,4653 4868,5438 4317,6666 4055,8335 L 1029,7975 C 1301,5738 2111,4026 3458,2837 4805,1648 6586,1054 8800,1054 11146,1054 13016,1692 14413,2968 15809,4244 16507,5788 16507,7598 16507,8645 16261,9611 15771,10494 15280,11378 14320,12452 12891,13718 11931,14568 11304,15196 11009,15599 10715,16003 10497,16466 10355,16990 10213,17514 10131,18364 10109,19542 L 7279,19542 Z M 7099,25449 L 7099,22095 10453,22095 10453,25449 7099,25449 Z"/>
  </g>
</svg>
