<svg xmlns="http://www.w3.org/2000/svg" viewBox="0 0 182.5 171.3"><defs><style>.cls-1{fill:#0098db;}.cls-2{fill:#00549f;}</style></defs><title>fight-crc-logo</title><g id="Layer_2" data-name="Layer 2"><g id="Logo"><path class="cls-1" d="M35.6,31.5v9.8h9.9v7.1H35.6V65.5H26.8V24.3H49.3v7.2Z"/><path class="cls-1" d="M53.1,65.5V24.3h8.8V65.5Z"/><path class="cls-1" d="M89.7,65.5l-1.1-3.8c-1.6,3.1-4.9,4.8-8.8,4.8-8.2,0-12.3-5.6-12.3-12V35.2c0-6.1,4.9-11.9,13.7-11.9s13.2,5.5,13.2,11.9v3.1H85.9V35c0-2.3-1.4-4.3-4.6-4.3s-4.8,2.1-4.8,4.4V54.6A4.48,4.48,0,0,0,81.3,59c3.3,0,4.9-2.2,4.9-4.4V50.3H81.4V44.2H94.6V65.5Z"/><path class="cls-1" d="M118.9,65.5V49H108.6V65.5H99.8V24.3h8.8V41.4h10.3V24.3h8.8V65.5Z"/><path class="cls-1" d="M149.1,31.9V65.5h-8.8V31.9h-8.9V24.4H158v7.5Z"/><path class="cls-1" d="M36.8,147.4c-6.3,0-10-4.1-10-9.3V125.2c0-5.2,3.7-9.3,10-9.3s9.4,3.7,9.4,8.7v2.9H40.4v-2.8c0-2.1-1.2-3.4-3.6-3.4s-3.6,1.4-3.6,3.3v14c0,1.9,1.2,3.3,3.6,3.3s3.6-1.3,3.6-3.4v-2.8h5.8v2.9C46.3,143.7,43.1,147.4,36.8,147.4Z"/><path class="cls-1" d="M62.2,146.6l-1.3-5.9H54.7l-1.3,5.9h-6l7-29.9h7.2l7,29.9ZM57.9,125l-2.3,10.9H60Z"/><path class="cls-1" d="M86,146.6l-6.6-12-2.6-4.9v16.9H70.9V116.7h5.3L82.6,129l2.4,4.9V116.7h5.8v29.9H86Z"/><path class="cls-1" d="M105,147.4c-6.3,0-10-4.1-10-9.3V125.2c0-5.2,3.7-9.3,10-9.3s9.4,3.7,9.4,8.7v2.9h-5.7v-2.8c0-2.1-1.2-3.4-3.6-3.4s-3.6,1.4-3.6,3.3v14c0,1.9,1.2,3.3,3.6,3.3s3.6-1.3,3.6-3.4v-2.8h5.7v2.9C114.4,143.7,111.2,147.4,105,147.4Z"/><path class="cls-1" d="M117.9,146.6V116.7h16.7v5.4H124.4v6.6h7.1v4.9h-7.1v7.5h10.2v5.6H117.9Z"/><path class="cls-1" d="M154.1,146.8c-2.6,0-3.6-1.8-3.6-4.6v-4.9c0-1.6-.8-2.9-2.7-2.9h-3.5v12.2H138V116.7h10.8c4.9,0,7.8,2.8,7.8,7.1V127a4.81,4.81,0,0,1-3.9,5,5,5,0,0,1,4,4.9v4.9a4.06,4.06,0,0,0,1.3,3.1v1.9h-3.9Zm-3.7-22.6c0-1.5-.6-2.4-2.3-2.4h-3.6V130h3.4c1.7,0,2.6-.9,2.6-2.7v-3.1Z"/><path class="cls-2" d="M151.2,93.2h-3.4l1.7-8.3ZM86.5,82.4H83.7v6.3h2.6a1.75,1.75,0,0,0,2-2V84.3C88.3,83.1,87.8,82.4,86.5,82.4Zm-18.2-.3a2.42,2.42,0,0,1,2.6,2.6V95.2a2.41,2.41,0,0,1-2.6,2.6,2.34,2.34,0,0,1-2.5-2.6V84.7A2.39,2.39,0,0,1,68.3,82.1ZM33.7,84.7V95.2a2.39,2.39,0,0,0,2.5,2.6,2.42,2.42,0,0,0,2.6-2.6V84.7a2.41,2.41,0,0,0-2.6-2.6A2.39,2.39,0,0,0,33.7,84.7ZM171.8,72.6V0L11.5,6.5V66.9L0,72.6v35.1H11.5v63.6l160.4-6.6V112.8l10.6-5.1V72.6ZM18.1,16H165.2V72.6H18.1ZM127.4,82.7V78.5h14.7v4.2h-4.9v18.6h-4.9V82.7Zm19.5-4.1h5.5l5.3,22.8h-4.9l-1-4.5h-4.7l-1,4.5h-4.6Zm-28,3.5a2.42,2.42,0,0,0-2.7,2.5V95.2a2.7,2.7,0,0,0,5.4-.1V93H126v2.2c0,3.8-2.4,6.6-7.2,6.6s-7.6-3.1-7.6-7.1V84.8c0-3.9,2.8-7.1,7.6-7.1s7.2,2.8,7.2,6.6v2.2h-4.4V84.4C121.6,83.2,120.7,82.1,118.9,82.1Zm-12.4,5.6v3.7h-5.4v5.7h7.8v4.3H96.2V78.6h12.7v4.1h-7.8v5h5.4ZM86.4,92.1H83.8v9.3H78.9V78.6h8.2c3.7,0,5.9,2.1,5.9,5.4v2.5a3.65,3.65,0,0,1-2.9,3.8,3.78,3.78,0,0,1,3,3.8v3.7a2.53,2.53,0,0,0,1,2.3v1.4H91.2c-2,0-2.7-1.4-2.7-3.5V94.3C88.4,93.1,87.8,92.1,86.4,92.1ZM75.8,85V95c0,4.1-2.8,7-7.5,7s-7.5-2.9-7.5-7V85c0-4,2.8-7,7.5-7S75.8,80.9,75.8,85ZM59.2,97.2v4.2H46.8V78.6h4.9V97.2h7.5ZM43.7,85V95c0,4.1-2.8,7-7.5,7s-7.5-2.9-7.5-7V85c0-4,2.8-7,7.5-7S43.7,80.9,43.7,85ZM11.5,94.9V85c0-3.9,2.8-7.1,7.6-7.1s7.2,2.8,7.2,6.6v2.2H21.9V84.6A2.4,2.4,0,0,0,19.2,82a2.42,2.42,0,0,0-2.7,2.5V95.1a2.42,2.42,0,0,0,2.7,2.5A2.4,2.4,0,0,0,21.9,95V92.9h4.4v2.2c0,3.8-2.4,6.6-7.2,6.6C14.3,102,11.5,98.8,11.5,94.9Zm153.7,60.3H18.1V107.6H165.2Zm6.6-53.8H159.4V78.6h4.9V97.2h7.5Z"/></g></g></svg>